<svg id="Layer_1" data-name="Layer 1" xmlns="http://www.w3.org/2000/svg" xmlns:xlink="http://www.w3.org/1999/xlink" viewBox="0 0 400 300"><defs><linearGradient id="linear-gradient" x1="189.56" y1="217.33" x2="217.51" y2="173.63" gradientUnits="userSpaceOnUse"><stop offset="0.01" stop-color="#ccc" stop-opacity="0"/><stop offset="1" stop-color="#f15a24"/></linearGradient><linearGradient id="linear-gradient-2" x1="246.63" y1="191.95" x2="274.4" y2="148.52" xlink:href="#linear-gradient"/></defs><title>#31-40</title><polygon points="39.05 204.63 162.86 275.54 351.56 165.81 227.91 94.42 39.05 204.63" fill="#ffc98b"/><path d="M188.59,230.68l41.05-34.22-15.59-9-50.87,29.27C169.5,220.62,182.37,226.67,188.59,230.68Z" fill="url(#linear-gradient)"/><path d="M253.23,205.66l45.94-26.33L258.57,154,207.7,183.26C214,187.1,247,201.66,253.23,205.66Z" fill="url(#linear-gradient-2)"/><path d="M117,182.75l-40.2,24.08a3.45,3.45,0,0,0,0,5.94l72.12,41.93a8.65,8.65,0,0,0,9.24-.35l35.19-24.19A4.79,4.79,0,0,0,193,222l-68.81-39.37A7.17,7.17,0,0,0,117,182.75Z" fill="#b1a9ff"/><polygon points="82.47 203.4 163.41 250.49 174.02 243.26 93.14 197.01 82.47 203.4" fill="#124577"/><ellipse cx="177.05" cy="226.35" rx="7.46" ry="4.32" fill="#124577"/><ellipse cx="170.99" cy="222.74" rx="7.46" ry="4.32" fill="#ff3174"/><path d="M185,80.82q-7-13-15.16-25.19c-.48-.71-1.64,0-1.15.68q8.19,12.22,15.16,25.19C184.26,82.25,185.42,81.57,185,80.82Z" fill="#ff3174"/><path d="M195.53,17.49c-11.68,6.92-40.57,24-49.21,29a4.83,4.83,0,0,0-2.4,4.21V169.39c-.18,2.42,2.56,4.66,4.79,3.39l48.59-27.66a5.56,5.56,0,0,0,3.2-5V20.32A3.29,3.29,0,0,0,195.53,17.49Z" fill="#68e1fd"/><path d="M200.17,18.89l-15.46,8.93v3.3a1.58,1.58,0,0,1-.79,1.37l-11.83,6.83a1,1,0,0,1-1.57-.9V36L148.31,49a1.41,1.41,0,0,0-.7,1.21V168.82a1,1,0,0,0,1.44.83l51.44-29.82a5.1,5.1,0,0,1-2.26,4.73c-2.66,1.7-49.53,28.21-49.53,28.21s-3.71,1.68-4.79-2.75V50.75a4.88,4.88,0,0,1,2-4c2.15-1.56,49.61-29.3,49.61-29.3A3.36,3.36,0,0,1,200.17,18.89Z" fill="#124577"/><path d="M148.31,49s11.55,4.83,11.37,26.19L145.59,68V49Z" fill="#ff3174"/><path d="M168.64,59.48c-1.43-5.1-19.48-13.33-19.48-13.33l-3.57,2v6.66c3.93,2,8.61,5,11,8.51,4.51,6.73,2.13,11.27,2.13,11.27.08.37,4.4,2.42,8.07,0S170.07,64.58,168.64,59.48Z" fill="#ff3174"/><path d="M208.25,47s2.38-4.54-2.13-11.26-17.53-11.46-17.53-11.46l10.15-5.74s18.05,8.23,19.48,13.33S220,44.68,216.32,47,208.25,47,208.25,47Z" fill="#ffe8d2"/><polygon points="134.36 189.25 165.67 171.74 179.33 175.84 157.61 192.44 144.31 198.21 134.36 189.25" fill="#124577"/><polygon points="145.55 195.66 179.33 175.84 181.85 207.6 147.33 227.71 145.55 195.66" fill="#68e1fd"/><polyline points="145.55 195.66 134.36 189.25 133.39 219.4 147.33 227.71" fill="#68e1fd"/><polyline points="145.55 195.66 134.36 189.25 133.39 219.4 147.33 227.71" fill="#124577" opacity="0.51"/><path d="M169.44,181.64s-1.48-11.4-9.79-9.57-6.12,19-6.12,19l-2.2,1.21s-3.58-15.51,4.86-20.53,14.4,3.09,15.21,8.74" fill="#fff"/><path d="M143.11,184.36s-2.93-12.41,7-15.76,11.06,5.67,11.06,5.67l-2.81,1.57s0-7-7.21-5.67S145.55,183,145.55,183" fill="#fff"/><path d="M273.38,168.06V144.7L294.29,133v23.17Z" fill="#eca016"/><path d="M273.38,144.7,253,133s-.57,23.55,0,23.93,20.35,11.12,20.35,11.12Z" fill="#ffb72f"/><polygon points="253.03 133.02 273.38 120.58 294.29 133.02 273.38 144.7 253.03 133.02" fill="#ffc863"/><polygon points="260.78 128.28 281.96 139.9 281.96 152.09 288.05 149.02 288.05 136.5 266.87 124.56 260.78 128.28" fill="#fdedcb"/><path d="M296.16,180.79V157.43l20.91-11.68v23.17Z" fill="#eca016"/><path d="M296.16,157.43l-20.35-11.68s-.57,23.55,0,23.93,20.35,11.12,20.35,11.12Z" fill="#ffb72f"/><polygon points="275.81 145.75 296.16 133.32 317.07 145.75 296.16 157.43 275.81 145.75" fill="#ffc863"/><polygon points="283.56 141.02 304.74 152.64 304.74 164.83 310.83 161.76 310.83 149.24 289.65 137.29 283.56 141.02" fill="#fdedcb"/><path d="M286.58,152.75V129.39l20.91-11.68v23.17Z" fill="#eca016"/><path d="M286.58,129.39l-20.35-11.68s-.57,23.55,0,23.93,20.35,11.12,20.35,11.12Z" fill="#ffb72f"/><polygon points="266.24 117.71 286.58 105.27 307.5 117.71 286.58 129.39 266.24 117.71" fill="#ffc863"/><polygon points="273.99 112.97 295.17 124.59 295.17 136.78 301.26 133.71 301.26 121.19 280.08 109.25 273.99 112.97" fill="#fdedcb"/><path d="M197.93,52.62s2.38-4.54-2.13-11.26S178.27,29.9,178.27,29.9l10.15-5.74s18.05,8.23,19.48,13.33,1.81,12.85-1.89,15.14S197.93,52.62,197.93,52.62Z" fill="#ff3174"/><path d="M188,58.25s2.38-4.54-2.13-11.26-17.53-11.46-17.53-11.46l10.15-5.74S196.52,38,198,43.11s1.81,12.85-1.89,15.14S188,58.25,188,58.25Z" fill="#ffe8d2"/><path d="M178.25,63.71s2.38-4.54-2.13-11.26S158.58,41,158.58,41l10.15-5.74s18.05,8.23,19.48,13.33,1.81,12.85-1.89,15.14S178.25,63.71,178.25,63.71Z" fill="#ff3174"/><path d="M169.35,70s1.3-5.21-3.21-11.94S148.6,46.62,148.6,46.62l10.15-5.74S176.8,49.1,178.23,54.2,180,67,176.34,69.34A7.57,7.57,0,0,1,169.35,70Z" fill="#ffe8d2"/><path d="M160.08,83.72v25.41a3.3,3.3,0,0,0,5,2.86l24.07-13.9a5,5,0,0,0,2.48-4.3V68.12a3.3,3.3,0,0,0-5-2.84l-24.16,14.3A4.82,4.82,0,0,0,160.08,83.72Z" fill="#fff"/><path d="M160.08,121.43v25.41a3.3,3.3,0,0,0,5,2.86l24.07-13.9a5,5,0,0,0,2.48-4.3V105.82a3.3,3.3,0,0,0-5-2.84l-24.16,14.3A4.82,4.82,0,0,0,160.08,121.43Z" fill="#fff"/><polygon points="172.22 80.42 180.98 75.78 184.32 96.16 179.13 98.92 177.55 86.39 178.04 99.66 171.72 103.14 172.22 80.42" fill="#124577"/><polygon points="172.22 118.18 180.98 113.55 184.32 133.92 179.13 136.68 177.55 124.15 178.04 137.42 171.72 140.9 172.22 118.18" fill="#614cd4"/><ellipse cx="165.6" cy="104.86" rx="2.84" ry="1.84" transform="translate(18.81 234.76) rotate(-73.85)" fill="#124577"/><ellipse cx="164.85" cy="142.51" rx="2.84" ry="1.84" transform="translate(-17.89 261.21) rotate(-73.85)" fill="#614cd4"/><path d="M210.19,191.08c0,.16-3.28,7.64-4,8.11s-3-1-3.79-.17-1.78,2.59-.06,3.32,6.84,1.43,7.76,1a15.81,15.81,0,0,0,2.53-1.71s.48-4,1-3.46.34,4.88.72,5a4.2,4.2,0,0,0,1.5-.22l-.49-12.65" fill="#ff3174"/><path d="M224.4,184.36c0,.16-3.55,7.52-4.31,8s-3-1.1-3.78-.3-1.87,2.52-.17,3.32,6.78,1.67,7.72,1.3a15.81,15.81,0,0,0,2.59-1.62s.62-4,1.14-3.42.17,4.89.55,5a4.2,4.2,0,0,0,1.5-.16l0-12.66" fill="#ff3174"/><path d="M211.9,122.31s-10.46,53.58-9.6,66c0,0,2.07,8.3,20.05,5.53,0,0,1.56-6.22.86-16.77s-2.59-54.79-2.59-54.79Z" fill="#614cd4"/><path d="M213.79,185.63l2.71-63.94,10.82-1S232,137.17,231,145.12s1.21,18.49,1.73,24c.47,5,.65,13.54-1.06,17.38A30,30,0,0,1,213.79,185.63Z" fill="#614cd4"/><path d="M223.11,190.83a106.91,106.91,0,0,0,1.81-12.14,43.21,43.21,0,0,0,0-6,58.32,58.32,0,0,0-.88-6.12,44.43,44.43,0,0,1-.49-11c.28-3.77.86-7.51,1.22-11.27a40.58,40.58,0,0,0-.41-12.71c-.12-.54.71-.77.83-.23,1.67,7.51.06,15.12-.64,22.65a45.18,45.18,0,0,0,.22,11.68c.31,1.89.7,3.77.9,5.68a39.84,39.84,0,0,1,.14,6.15,99.48,99.48,0,0,1-1.92,13.53C223.84,191.61,223,191.37,223.11,190.83Z" fill="#fff"/><path d="M224.29,99.16C223.14,99,202,84.53,201.36,85.1s-3.29,7.82-.19,10.53,21.92,13.84,21.92,13.84" fill="#ea1b66"/><path d="M227.8,102.23,219,94.39c-1,.38-7.23-.29-8.66,3.83-.93,2.68-1.26,6.06-1.71,7.94,0,.11,1.38.64,1.39.77a47.38,47.38,0,0,1-.19,12.45,6.37,6.37,0,0,0,2.27-.81s-.48,3.65,0,4.76,12.17,2.46,14.87-1S227.8,102.23,227.8,102.23Z" fill="#ff3174"/><path d="M192.4,82.7a.46.46,0,0,0,0-.11,7.72,7.72,0,0,1-.29-1,.48.48,0,0,0-.8-.22.51.51,0,0,0-.21.24,2.07,2.07,0,0,0-.15.75s0,0,0,0a2.58,2.58,0,0,0,0,.51h0v0h0a3.06,3.06,0,0,0,1.58,2s-.8.52-.76.55c-.76,1.22-.26,2.55.48,3.82a.49.49,0,0,1,.3,0,22.74,22.74,0,0,0,2.86.79,16.45,16.45,0,0,0,2.32.38,6,6,0,0,1,2.29.66,31.49,31.49,0,0,1,.41-4A54.77,54.77,0,0,1,192.4,82.7Z" fill="#f7931e"/><path d="M192.46,86.46c.19-.28-.26-.53-.45-.26a3.54,3.54,0,0,0-.39.74,2.74,2.74,0,0,0-.27,1.13,2.61,2.61,0,0,0,0,.27s0,0,0,0a.27.27,0,0,0,0,.11.69.69,0,0,0,.29.46c.31.16.57-.17.68-.42a2.58,2.58,0,0,0,.22-1.12c0-.29,0-.66-.2-.85Z" fill="#f7931e"/><path d="M199.57,90.62a4.74,4.74,0,0,0-2.41-.67c-1.15,0-2.29.29-3-.84-.46-.68-.4-1.46-1-2a5.65,5.65,0,0,0-.46-.34l-.32-.22a.73.73,0,0,1-.41-.43.55.55,0,0,1,.57-.68,1.55,1.55,0,0,1,.63.23l.05,0c.37.13.73.29,1.09.46s.56-.31.26-.45c-.71-.34-2.29-1.27-3-.42a.81.81,0,0,0-.18.81h0a9.1,9.1,0,0,0-.35,1.49,1.91,1.91,0,0,0,0,1.08,1,1,0,0,0,1.09.58,1.21,1.21,0,0,0,.12.32,1.23,1.23,0,0,0,1.6.37.2.2,0,0,0,.13-.21,2.66,2.66,0,0,0,.93.65,3.94,3.94,0,0,0,1.86.13,4.38,4.38,0,0,1,2.57.58A.26.26,0,0,0,199.57,90.62ZM192,88.71l-.05,0c-.2.18-.53-.44-.55-.53a2,2,0,0,1,.1-.78c0-.27.11-.54.19-.8a6.5,6.5,0,0,0,.6.5v0A8.09,8.09,0,0,0,192,88.71Zm1.5.78c-.7.3-1-.29-.93-.9a7.81,7.81,0,0,1,.16-1.1l.12.12c.45.54.45,1.29.85,1.86A.27.27,0,0,0,193.54,89.49Z" fill="#42210b"/><path d="M212.79,81.25c-.66.42-.64,10.93,2.35,12.23,3.9,1.69,7-2.92,7.4-5.4S220.49,76.37,212.79,81.25Z" fill="#f7931e"/><path d="M233.38,98.18A4.59,4.59,0,0,1,232,96.77a6.25,6.25,0,0,1-.25-2.15c-.1-1.77-.56-3.66-2.2-4.63-1-.62-2.53-.08-3.4-1s-.66-2.67-.8-4c-.7-6.87-10.81-8.11-14.07-2.52a4,4,0,0,0,1.19,5.41,4,4,0,0,0,1.61.63c.84.13,1.66.11,2,1,.54,1.36-.45,2.76-.94,4-.76,1.88-1,4.57.83,5.93a9.41,9.41,0,0,0,3,1.09,2.33,2.33,0,0,1,1.16.64c.49.61.18,1.46.08,2.15a3.39,3.39,0,0,0,0,1.11,2.34,2.34,0,0,0,.56,1.95c1.1,1.33,3.12,1.38,4.71,1.3a14.71,14.71,0,0,0,5.36-1.32c1.49-.68,3.33-1.72,4.09-3.23C235.82,101.28,234.79,99.39,233.38,98.18Z" fill="#42210b"/><polygon points="220.3 153.56 200.53 142.51 191.91 145.1 205.62 155.57 214.02 159.22 220.3 153.56" fill="#124577"/><polygon points="213.24 157.61 191.91 145.1 190.32 165.15 212.11 177.84 213.24 157.61" fill="#68e1fd"/><polyline points="213.24 157.61 220.3 153.56 220.91 172.59 212.11 177.84" fill="#68e1fd"/><path d="M198.15,148.76s.93-7.2,6.18-6,3.86,12,3.86,12l1.39.76s2.26-9.79-3.07-13-9.09,1.95-9.6,5.52" fill="#fff"/><path d="M214.19,150.15a7.15,7.15,0,0,0-5.57-6.22l.15,1.63s2.54.2,4.06,3.83Z" fill="#fff"/><path d="M210.7,133.16c-.83,0,.41-10.16-1.32-2.72a4.08,4.08,0,0,1-3.44,2.72c-.12.2-.84,1.53-1.57,2.87-.73,2.51-1.46,5-2.08,7.54a1.68,1.68,0,0,1,.17.71,8.67,8.67,0,0,0,.14,1.36c.19.91.7,1.73,1.74,1.31a1.63,1.63,0,0,0,.41-.24,1.24,1.24,0,0,0,1.71.62,1.38,1.38,0,0,0,.73-.85.89.89,0,0,0,1.13,0,1.35,1.35,0,0,0,.46-.89,1.12,1.12,0,0,0,.54-.1c.8-.36,1-1.47,1.09-2.24A95.13,95.13,0,0,0,210.7,133.16Z" fill="#f7931e"/><path d="M203.49,135.68a28.18,28.18,0,0,0-1.63,3.67c-.29,1.12.24,1.28,1.21,1.68.55.23.8-.57.38-.89a.48.48,0,0,0,.39-.46,4.83,4.83,0,0,1,.38-1.7c0-.06.05-.12.07-.19a.43.43,0,0,0-.05-.37l.12-.23a.47.47,0,0,0-.18-.66c.09-.19.18-.38.26-.57C204.71,135.35,203.74,135.09,203.49,135.68Z" fill="#f7931e"/><path d="M212.44,138.16c1.46-5.93,4.07-29,4.07-29l-7.9-3s-6.64,28.58-6.37,30.57C204.19,138.12,210.1,138.77,212.44,138.16Z" fill="#ff3174"/></svg>